<ttFont>
<head>
    <!-- Most of this table will be recalculated by the compiler -->
    <tableVersion value="1.0"/>
    <fontRevision value="1.004"/>
    <checkSumAdjustment value="0x340d67e1"/>
    <magicNumber value="0x5f0f3cf5"/>
    <flags value="00000000 00000011"/>
    <unitsPerEm value="1000"/>
    <created value="Tue Feb 26 02:06:57 2019"/>
    <modified value="Tue Feb 26 10:07:01 2019"/>
    <xMin value="-178"/>
    <yMin value="-250"/>
    <xMax value="1135"/>
    <yMax value="908"/>
    <macStyle value="00000000 00000000"/>
    <lowestRecPPEM value="3"/>
    <fontDirectionHint value="2"/>
    <indexToLocFormat value="0"/>
    <glyphDataFormat value="0"/>
  </head>
              <CharString index="0">
                0 0 0</CharString>
              <CharString index="1">
                2 blend
                rmoveto
              </CharString>
              <CharString index="2">
                -107 callsubr
                1 blend
              </CharString>
              <CharString index="3">
                2 -2 3</CharString>
              <CharString index="4">
                -1 1 -2</CharString>
              <CharString index="5">
                -105 callsubr
                hlineto
              </CharString>
              <CharString index="6">
                2 blend
                rlineto
              </CharString>
              <CharString index="7">
                1 -1 3</CharString>
              <CharString index="8">
                -107 callsubr
                -101 callsubr
              </CharString>
              <CharString index="9">
                -107 callsubr
                -106 callsubr
              </CharString>
              <CharString index="10">
                -1 0 0 0</CharString>
              <CharString index="11">
                -2 0 0 0</CharString>
              <CharString index="12">
                1 0 0 0</CharString>
              <CharString index="13">
                8 0 0 0</CharString>
              <CharString index="14">
                -10 0 0 0</CharString>
              <CharString index="15">
                7 0 0 0</CharString>
              <CharString index="16">
                13 0 0 0</CharString>
              <CharString index="17">
                -11 0 0 0</CharString>
              <CharString index="18">
                -16 0 0 0</CharString>
              <CharString index="19">
                -14 0 0 0</CharString>
              <CharString index="20">
                -75 callsubr
                rlineto
              </CharString>
              <CharString index="21">
                -107 callsubr
                3 blend
                hlineto
              </CharString>
              <CharString index="22">
                19 0 0 0</CharString>
              <CharString index="23">
                4 -4 6 1 blend
              </CharString>
              <CharString index="24">
                -19 0 0 0</CharString>
              <CharString index="25">
                -20 0 0 0</CharString>
              <CharString index="26">
                15 0 0 0</CharString>
              <CharString index="27">
                -107 callsubr
                -94 callsubr
                0 -101 callsubr
              </CharString>
              <CharString index="28">
                -107 callsubr
                4 blend
                vlineto
              </CharString>
              <CharString index="29">
                23 0 0 0</CharString>
              <CharString index="30">
                -107 callsubr
                8 blend
                hvcurveto
              </CharString>
              <CharString index="31">
                -3 1 -1 1</CharString>
              <CharString index="32">
                -107 callsubr
                0 2 blend
              </CharString>
              <CharString index="33">
                4 -4 6 2 blend
                rmoveto
              </CharString>
              <CharString index="34">
                19 -9 9 -15 2 blend
              </CharString>
              <CharString index="35">
                -4 4 -6 1 blend
                hlineto
              </CharString>
              <CharString index="36">
                -107 callsubr
                24 -16 9 -9 15</CharString>
              <CharString index="37">
                -52 callsubr
                140 55 -10 -67 callsubr
                -16 29 -68 callsubr
                3 -8 -79 callsubr
              </CharString>
              <CharString index="38">
                0 0 0 0 1 0 0 0</CharString>
              <CharString index="39">
                -107 callsubr
                -28 19 -9 9 -15</CharString>
              <CharString index="40">
                20 -19 9 -9 15</CharString>
              <CharString index="41">
                -8 8 -12 1 blend
              </CharString>
              <CharString index="42">
                -102 callsubr
                -3 103 -95 callsubr
                0 -1</CharString>
              <CharString index="43">
                -107 callsubr
                -9 -87 callsubr
                -20</CharString>
              <CharString index="44">
                blend
                rlineto
                -40 20 -19 9 -9 15 1 blend
                vlineto
              </CharString>
              <CharString index="45">
                -107 callsubr
                -67 callsubr
              </CharString>
              <CharString index="46">
                -16 8 -8 13 1 blend
                vlineto
              </CharString>
              <CharString index="47">
                -5 5 -8 2 blend
                rmoveto
              </CharString>
              <CharString index="48">
                10 -10 17 2 blend
                rlineto
              </CharString>
              <CharString index="49">
                -107 callsubr
                0 2 -63 callsubr
              </CharString>
              <CharString index="50">
                -102 callsubr
                3 -103 -97 callsubr
                0 1</CharString>
              <CharString index="51">
                16 -8 8 -13 2 blend
                hlineto
              </CharString>
              <CharString index="52">
                -15 15 -25 1 blend
                hlineto
              </CharString>
              <CharString index="53">
                -63 56 -18 18 -30</CharString>
              <CharString index="54">
                230 40 -32 -20 -4 4 -6 -20 -73 callsubr
                hlineto
                -110 15 13 21 -2 2 -3 -9 -50 callsubr
                -100 -15 13 -4 6 -6 9 9 -58 callsubr
                66 7 -11 -105 callsubr
                hmoveto
                47 -18 17 -72 callsubr
                204 599 -23 0 201 -599 7 -18 -8 8 -14 68 -89 callsubr
                6 -20 4 -4 6 -10 -70 8 -8 13 15 -42 2 -2 5 -58 86 -8 8 -13 6 blend
                rlineto
                93 -61 108 -102 callsubr
                -230 675 1 -92 callsubr
                9 -23 -99 callsubr
                -60 40 -60 -102 callsubr
                -232 -675 10 8 6 -6 9 -9 23 -99 callsubr
                99 219 -11 4 -2 2 -4 28 -39 5 -5 8 -106 callsubr
                302 -7 10 -1 1 0 1 blend
                hlineto
                -16 46 8 -9 6 -6 9 -26 17 -10 10 -17 -101 callsubr
                -270 -8 0 -8 8 -13 1 blend
                hlineto
                -16 -46 7 -1 3 -3 4 26 -17 -59 callsubr
                213 -219 17 -39 0 0 1 -28 39 -60 callsubr
                270 40 -22 53 -107 callsubr
                -20 -56 callsubr
                -124 15 10 -6 -64 callsubr
                6 -65 -84 callsubr
                hlineto
                -126 -15 6 18 -4 4 -6 9 -87 callsubr
                -40 20 -61 callsubr
              </CharString>
              <CharString index="55">
                -51 callsubr
                -560 -54 callsubr
                1 blend
                vmoveto
                -130 -15 13 -21 -80 callsubr
                -40</CharString>
              <CharString index="56">
                -106 callsubr
                10 55 -140 -40 -3 8 -68 callsubr
                16 -29 -62 callsubr
                4 blend
                hlineto
                130 -15 -13 21 -80 callsubr
              </CharString>
              <CharString index="57">
                -87 callsubr
                -20 6 3 -102 callsubr
              </CharString>
        <CharString name=".notdef">
          80 0 0 -84 callsubr
          hmoveto
          60 -35 20 -55 callsubr
          420 670 35 -20 7 -7 13 7 -18 -99 callsubr
          -60 35 -20 15 -15 25 1 blend
          hlineto
          -420 -670 -35 20 -7 7 -13 -7 18 -99 callsubr
          480 0 0 -66 callsubr
          hmoveto
          -420 670 -35 20 -7 7 -13 7 -18 -99 callsubr
          -60 35 -20 15 -15 25 1 blend
          hlineto
          420 -670 35 -20 7 -7 13 -7 18 -99 callsubr
          60 -35 20 -15 15 -25 1 blend
          hlineto
          -420 50 -35 10 4 -4 6 -28 10 -98 callsubr
          570 360 -570 -360 63 -38 -107 callsubr
          70 -82 callsubr
          -63 38 -107 callsubr
          -70 20 -79 callsubr
          -60 -50 35 -93 callsubr
          28 -10 -98 callsubr
          480 670 7 -18 -105 callsubr
          -480 -670 -7 18 -102 callsubr
        </CharString>
        <CharString name="A">
          5 7 5 -104 callsubr
          1 blend
          hmoveto
          -53 callsubr
        </CharString>
        <CharString name="B">
          140 310 27 -42 -107 callsubr
          0 5 -74 callsubr
          -105 1 -2 -103 callsubr
          1 blend
          0 -104 -3 -101 0 -1 -2 2 -2 -95 callsubr
          0 -1 -2 -103 callsubr
          3 blend
          vhcurveto
          96 -62 104 -65 callsubr
          2 1 -1 2 2 blend
          0 104 118 0 1 2 -2 2 26 -12 1 -1 2 2 blend
          vvcurveto
          35 -28 -15 -105 callsubr
          vlineto
          105 9 2 -103 callsubr
          1 blend
          0 104 3 101 0 2 -2 2 -2 -1 -107 callsubr
          0 1 2 -103 callsubr
          3 blend
          vhcurveto
          -96 62 -104 -57 callsubr
          -2 1 -1 2 2 blend
          0 -104 -103 0 -2 2 -2 2 -1 -2 1 -1 2 2 blend
          vvcurveto
          -50 -7 29 -105 callsubr
          vlineto
          35 305 -27 46 -107 callsubr
          35 -42 5 -5 9 -70 callsubr
          10 268 -3 -94 callsubr
          48 -28 13 -13 21 -106 callsubr
          102 -1 18 -102 callsubr
          140 61 -47 -93 -88 -63 -49 -130 22 -56 -107 callsubr
          8 -83 callsubr
          -13 10 -2 2 -2 -9 3 -4 4 -7 -14 5 -5 5 -8 -12 -91 callsubr
          -8 7 -2 2 -4 5 52 -77 callsubr
          -110 -46 134 -22 -8 -71 callsubr
          -3 -14 -86 callsubr
          189 75 92 91 86 -64 70 -156 13 -33 83 -107 callsubr
          0 -19 0 0 0 -15 12 -107 callsubr
          11 -10 -107 callsubr
          14 -81 callsubr
          -4 -8 -2 2 -4 6 -10 -1 1 -1 -6 -29 -5 5 -9 -11 -76 callsubr
          9 blend
          hvcurveto
          0 -9 -10 -69 callsubr
          0 -101 callsubr
          133 16 54 69 78 8 40 6 -6 10 -5 4 1 -1 1 10 -11 -100 callsubr
          6 -8 0 0 2 6 -5 -1 1 -3 5 blend
          vvcurveto
          96 -80 68 -137 -1 -90 callsubr
          14 -78 callsubr
          -5 -96 callsubr
          -9 -45 -107 callsubr
          4 blend
          vhcurveto
          -148 -46 119 33 -20 -71 callsubr
          -15 -1 -86 callsubr
          103 53 -32 -92 -92 -53 -39 -123 42 -34 -107 callsubr
          -3 -23 -107 callsubr
          -25 -5 -3 3 -4 16 25 -4 4 -7 -3 18 -3 3 -7 -22 -85 callsubr
          -25 -3 -3 3 -3 -13 53 -77 callsubr
          -99 -46 11 -88 callsubr
          26 -10 8 -8 12 2 blend
          hlineto
        </CharString>
</ttFont>
